<mxfile host="Electron" modified="2023-07-08T15:35:14.695Z" agent="Mozilla/5.0 (Windows NT 10.0; Win64; x64) AppleWebKit/537.36 (KHTML, like Gecko) draw.io/21.5.0 Chrome/112.0.5615.204 Electron/24.5.1 Safari/537.36" etag="LFJ-xqT-uS0y-hEX7IpJ" version="21.5.0" type="device">
  <diagram name="Page-1" id="LlDlFtmadexEm5XE6nL2">
    <mxGraphModel dx="1024" dy="603" grid="1" gridSize="10" guides="1" tooltips="1" connect="1" arrows="1" fold="1" page="1" pageScale="1" pageWidth="850" pageHeight="1100" math="0" shadow="0">
      <root>
        <mxCell id="0" />
        <mxCell id="1" parent="0" />
        <mxCell id="6FqpXQ43tkm7bnqp3haV-3" style="edgeStyle=orthogonalEdgeStyle;rounded=0;orthogonalLoop=1;jettySize=auto;html=1;" edge="1" parent="1" source="6FqpXQ43tkm7bnqp3haV-1">
          <mxGeometry relative="1" as="geometry">
            <mxPoint x="185" y="130" as="targetPoint" />
          </mxGeometry>
        </mxCell>
        <mxCell id="6FqpXQ43tkm7bnqp3haV-1" value="start" style="ellipse;whiteSpace=wrap;html=1;" vertex="1" parent="1">
          <mxGeometry x="140" y="40" width="90" height="50" as="geometry" />
        </mxCell>
        <mxCell id="6FqpXQ43tkm7bnqp3haV-7" style="edgeStyle=orthogonalEdgeStyle;rounded=0;orthogonalLoop=1;jettySize=auto;html=1;" edge="1" parent="1" source="6FqpXQ43tkm7bnqp3haV-4" target="6FqpXQ43tkm7bnqp3haV-8">
          <mxGeometry relative="1" as="geometry">
            <mxPoint x="185" y="260" as="targetPoint" />
          </mxGeometry>
        </mxCell>
        <mxCell id="6FqpXQ43tkm7bnqp3haV-4" value="Terima barang&lt;br&gt;&amp;nbsp;masuk dari mitra" style="shape=parallelogram;perimeter=parallelogramPerimeter;whiteSpace=wrap;html=1;fixedSize=1;" vertex="1" parent="1">
          <mxGeometry x="125" y="130" width="120" height="60" as="geometry" />
        </mxCell>
        <mxCell id="6FqpXQ43tkm7bnqp3haV-9" style="edgeStyle=orthogonalEdgeStyle;rounded=0;orthogonalLoop=1;jettySize=auto;html=1;" edge="1" parent="1" source="6FqpXQ43tkm7bnqp3haV-8" target="6FqpXQ43tkm7bnqp3haV-10">
          <mxGeometry relative="1" as="geometry">
            <mxPoint x="185" y="340" as="targetPoint" />
          </mxGeometry>
        </mxCell>
        <mxCell id="6FqpXQ43tkm7bnqp3haV-8" value="Periksa ketersediaan inventaris" style="rounded=0;whiteSpace=wrap;html=1;" vertex="1" parent="1">
          <mxGeometry x="125" y="230" width="120" height="60" as="geometry" />
        </mxCell>
        <mxCell id="6FqpXQ43tkm7bnqp3haV-11" value="Ya" style="edgeStyle=orthogonalEdgeStyle;rounded=0;orthogonalLoop=1;jettySize=auto;html=1;" edge="1" parent="1" source="6FqpXQ43tkm7bnqp3haV-10" target="6FqpXQ43tkm7bnqp3haV-12">
          <mxGeometry relative="1" as="geometry">
            <mxPoint x="185" y="490" as="targetPoint" />
          </mxGeometry>
        </mxCell>
        <mxCell id="6FqpXQ43tkm7bnqp3haV-13" value="Tidak" style="edgeStyle=orthogonalEdgeStyle;rounded=0;orthogonalLoop=1;jettySize=auto;html=1;" edge="1" parent="1" source="6FqpXQ43tkm7bnqp3haV-10" target="6FqpXQ43tkm7bnqp3haV-14">
          <mxGeometry relative="1" as="geometry">
            <mxPoint x="380" y="385" as="targetPoint" />
          </mxGeometry>
        </mxCell>
        <mxCell id="6FqpXQ43tkm7bnqp3haV-10" value="inventaris tersedia&lt;br&gt;?" style="rhombus;whiteSpace=wrap;html=1;" vertex="1" parent="1">
          <mxGeometry x="141.25" y="340" width="87.5" height="90" as="geometry" />
        </mxCell>
        <mxCell id="6FqpXQ43tkm7bnqp3haV-16" style="edgeStyle=orthogonalEdgeStyle;rounded=0;orthogonalLoop=1;jettySize=auto;html=1;" edge="1" parent="1" source="6FqpXQ43tkm7bnqp3haV-12" target="6FqpXQ43tkm7bnqp3haV-17">
          <mxGeometry relative="1" as="geometry">
            <mxPoint x="185" y="580" as="targetPoint" />
          </mxGeometry>
        </mxCell>
        <mxCell id="6FqpXQ43tkm7bnqp3haV-12" value="Alokasi inventaris untuk distribusi keluar" style="rounded=0;whiteSpace=wrap;html=1;" vertex="1" parent="1">
          <mxGeometry x="125" y="480" width="120" height="60" as="geometry" />
        </mxCell>
        <mxCell id="6FqpXQ43tkm7bnqp3haV-15" style="edgeStyle=orthogonalEdgeStyle;rounded=0;orthogonalLoop=1;jettySize=auto;html=1;" edge="1" parent="1" source="6FqpXQ43tkm7bnqp3haV-14">
          <mxGeometry relative="1" as="geometry">
            <mxPoint x="190" y="310" as="targetPoint" />
            <Array as="points">
              <mxPoint x="410" y="310" />
            </Array>
          </mxGeometry>
        </mxCell>
        <mxCell id="6FqpXQ43tkm7bnqp3haV-14" value="Tunggu &lt;br&gt;ketersediaan inventaris" style="rounded=0;whiteSpace=wrap;html=1;" vertex="1" parent="1">
          <mxGeometry x="350" y="410" width="120" height="60" as="geometry" />
        </mxCell>
        <mxCell id="6FqpXQ43tkm7bnqp3haV-18" style="edgeStyle=orthogonalEdgeStyle;rounded=0;orthogonalLoop=1;jettySize=auto;html=1;" edge="1" parent="1" source="6FqpXQ43tkm7bnqp3haV-17" target="6FqpXQ43tkm7bnqp3haV-19">
          <mxGeometry relative="1" as="geometry">
            <mxPoint x="185" y="700" as="targetPoint" />
          </mxGeometry>
        </mxCell>
        <mxCell id="6FqpXQ43tkm7bnqp3haV-17" value="buat jadwal distribusi" style="rounded=0;whiteSpace=wrap;html=1;" vertex="1" parent="1">
          <mxGeometry x="125" y="580" width="120" height="60" as="geometry" />
        </mxCell>
        <mxCell id="6FqpXQ43tkm7bnqp3haV-21" value="Ya" style="edgeStyle=orthogonalEdgeStyle;rounded=0;orthogonalLoop=1;jettySize=auto;html=1;exitX=0;exitY=0.5;exitDx=0;exitDy=0;" edge="1" parent="1" source="6FqpXQ43tkm7bnqp3haV-19">
          <mxGeometry relative="1" as="geometry">
            <mxPoint x="190" y="120" as="targetPoint" />
            <mxPoint x="107.53091397849448" y="770.0122580645161" as="sourcePoint" />
            <Array as="points">
              <mxPoint x="31" y="760" />
              <mxPoint x="31" y="120" />
            </Array>
          </mxGeometry>
        </mxCell>
        <mxCell id="6FqpXQ43tkm7bnqp3haV-23" value="Tidak" style="edgeStyle=orthogonalEdgeStyle;rounded=0;orthogonalLoop=1;jettySize=auto;html=1;" edge="1" parent="1" source="6FqpXQ43tkm7bnqp3haV-19" target="6FqpXQ43tkm7bnqp3haV-24">
          <mxGeometry relative="1" as="geometry">
            <mxPoint x="185" y="880" as="targetPoint" />
          </mxGeometry>
        </mxCell>
        <mxCell id="6FqpXQ43tkm7bnqp3haV-19" value="ada barang &lt;br&gt;masuk lain&lt;br&gt;?" style="rhombus;whiteSpace=wrap;html=1;" vertex="1" parent="1">
          <mxGeometry x="127.5" y="700" width="115" height="120" as="geometry" />
        </mxCell>
        <mxCell id="6FqpXQ43tkm7bnqp3haV-24" value="end" style="ellipse;whiteSpace=wrap;html=1;" vertex="1" parent="1">
          <mxGeometry x="142.5" y="890" width="85" height="30" as="geometry" />
        </mxCell>
      </root>
    </mxGraphModel>
  </diagram>
</mxfile>
